<svg xmlns:dc="http://purl.org/dc/elements/1.1/" xmlns:cc="http://creativecommons.org/ns#" xmlns:rdf="http://www.w3.org/1999/02/22-rdf-syntax-ns#" xmlns:svg="http://www.w3.org/2000/svg" xmlns="http://www.w3.org/2000/svg" xmlns:sodipodi="http://sodipodi.sourceforge.net/DTD/sodipodi-0.dtd" xmlns:inkscape="http://www.inkscape.org/namespaces/inkscape" viewBox="0 0 8.4666667 10.583333625" version="1.1" x="0px" y="0px"><svg:g><svg:path style="color:#000000;font-style:normal;font-variant:normal;font-weight:normal;font-stretch:normal;font-size:medium;line-height:normal;font-family:sans-serif;font-variant-ligatures:normal;font-variant-position:normal;font-variant-caps:normal;font-variant-numeric:normal;font-variant-alternates:normal;font-feature-settings:normal;text-indent:0;text-align:start;text-decoration:none;text-decoration-line:none;text-decoration-style:solid;text-decoration-color:#000000;letter-spacing:normal;word-spacing:normal;text-transform:none;writing-mode:lr-tb;direction:ltr;text-orientation:mixed;dominant-baseline:auto;baseline-shift:baseline;text-anchor:start;white-space:normal;shape-padding:0;clip-rule:nonzero;display:inline;overflow:visible;visibility:visible;opacity:1;isolation:auto;mix-blend-mode:normal;color-interpolation:sRGB;color-interpolation-filters:linearRGB;solid-color:#000000;solid-opacity:1;vector-effect:none;fill:#000000;fill-opacity:1;fill-rule:nonzero;stroke:none;stroke-width:0.5291667;stroke-linecap:round;stroke-linejoin:round;stroke-miterlimit:4;stroke-dasharray:none;stroke-dashoffset:0;stroke-opacity:1;paint-order:normal;color-rendering:auto;image-rendering:auto;shape-rendering:auto;text-rendering:auto;enable-background:accumulate" d="M 4.2237734,-1.7485496e-4 A 0.26460984,0.26460984 0 0 0 4.069261,0.05666515 L 0.31135087,3.0017041 a 0.26460984,0.26460984 0 0 0 -0.10128594,0.207223 v 4.97644 a 0.26460984,0.26460984 0 0 0 0.26561706,0.264067 H 2.0652489 a 0.26460984,0.26460984 0 0 0 0.265617,-0.264067 v -4.066418 h 3.8049364 v 4.066418 a 0.26460984,0.26460984 0 0 0 0.2656152,0.264067 h 1.589569 a 0.26460984,0.26460984 0 0 0 0.2656152,-0.264067 v -4.97644 A 0.26460984,0.26460984 0 0 0 8.1553166,3.0017081 L 4.3974062,0.05666915 A 0.26460984,0.26460984 0 0 0 4.2237734,-1.7085496e-4 Z M 4.2335934,0.60133815 7.7274364,3.3381221 v 4.581633 H 6.664969 V 3.8554031 A 0.26460984,0.26460984 0 0 0 6.4014175,3.5897861 H 2.0652489 a 0.26460984,0.26460984 0 0 0 -0.2635496,0.265617 v 4.064352 H 0.73923159 V 3.3381221 Z M 3.0383176,2.4022621 a 0.26495232,0.26495232 0 0 0 0.025321,0.529167 h 2.3399091 a 0.26464799,0.26464799 0 1 0 0,-0.529167 h -2.33991 a 0.26460984,0.26460984 0 0 0 -0.02532,0 z m 0.5291666,2.980696 a 0.26460984,0.26460984 0 0 0 -0.2382284,0.26355 v 1.013892 H 2.9561507 a 0.26460984,0.26460984 0 0 0 -0.2656171,0.26355 v 1.277441 a 0.26460984,0.26460984 0 0 0 0.2656171,0.265617 H 4.2335921 5.5105178 A 0.26460984,0.26460984 0 0 0 5.776133,8.2013911 V 6.9239501 A 0.26460984,0.26460984 0 0 0 5.5105178,6.6604001 H 5.1379289 V 5.6465081 A 0.26460984,0.26460984 0 0 0 4.8723127,5.3829581 H 3.5948713 a 0.26460984,0.26460984 0 0 0 -0.027387,0 z m 0.2909382,0.529167 h 0.749825 v 0.748275 h -0.374654 -0.375171 z m -0.6387208,1.277441 h 0.7498252 v 0.747758 H 3.2197003 Z m 1.2774417,0 H 4.872314 5.2469677 v 0.747758 H 4.497142 Z"/></svg:g><text x="0" y="23.4666669" fill="#000000" font-size="5px" font-weight="bold" font-family="'Helvetica Neue', Helvetica, Arial-Unicode, Arial, Sans-serif">Created by Larea</text><text x="0" y="28.4666669" fill="#000000" font-size="5px" font-weight="bold" font-family="'Helvetica Neue', Helvetica, Arial-Unicode, Arial, Sans-serif">from the Noun Project</text></svg>